HIERARCHY
ROOT Hips
{
	OFFSET 0.000000 0.000000 0.000000
	CHANNELS 6 Xposition Yposition Zposition Xrotation Yrotation Zrotation
	JOINT LeftUpLeg_virtual
	{
		OFFSET 0.000000 0.000000 0.000000
		CHANNELS 3 Xrotation Yrotation Zrotation
		JOINT LeftUpLeg
		{
			OFFSET 15.427100 -6.655098 0.678600
			CHANNELS 3 Xrotation Yrotation Zrotation
			JOINT LeftLeg
			{
				OFFSET 4.081073 -39.591068 13.024000
				CHANNELS 3 Xrotation Yrotation Zrotation
				JOINT LeftFoot
				{
					OFFSET -4.081074 -37.707932 -15.979700
					CHANNELS 3 Xrotation Yrotation Zrotation
					JOINT LeftToeBase
					{
						OFFSET 5.346399 -15.068900 20.645000
						CHANNELS 3 Xrotation Yrotation Zrotation
						JOINT LeftToe_End
						{
							OFFSET 2.754700 0.931300 11.300900
							CHANNELS 3 Xrotation Yrotation Zrotation
							End Site
							{
								OFFSET 0 0 0
							}
						}
					}
				}
			}
		}
	}
	JOINT RightUpLeg_virtual
	{
		OFFSET 0.000000 0.000000 0.000000
		CHANNELS 3 Xrotation Yrotation Zrotation
		JOINT RightUpLeg
		{
			OFFSET -15.569500 -6.655098 0.678600
			CHANNELS 3 Xrotation Yrotation Zrotation
			JOINT RightLeg
			{
				OFFSET -4.081825 -39.591045 13.023800
				CHANNELS 3 Xrotation Yrotation Zrotation
				JOINT RightFoot
				{
					OFFSET 4.081824 -37.707954 -15.979600
					CHANNELS 3 Xrotation Yrotation Zrotation
					JOINT RightToeBase
					{
						OFFSET -5.346400 -15.068900 20.645000
						CHANNELS 3 Xrotation Yrotation Zrotation
						JOINT RightToe_End
						{
							OFFSET -2.754700 0.931300 11.300900
							CHANNELS 3 Xrotation Yrotation Zrotation
							End Site
							{
								OFFSET 0 0 0
							}
						}
					}
				}
			}
		}
	}
	JOINT Spine_virtual
	{
		OFFSET 0.000000 0.000000 0.000000
		CHANNELS 3 Xrotation Yrotation Zrotation
		JOINT Spine
		{
			OFFSET -0.279200 12.230698 -2.892100
			CHANNELS 3 Xrotation Yrotation Zrotation
			JOINT Spine1
			{
				OFFSET -0.232667 10.192268 -1.242267
				CHANNELS 3 Xrotation Yrotation Zrotation
				JOINT Spine1_split
				{
					OFFSET -0.232667 10.192268 -1.242267
					CHANNELS 3 Xrotation Yrotation Zrotation
					JOINT Spine2
					{
						OFFSET -0.232667 10.192268 -1.242267
						CHANNELS 3 Xrotation Yrotation Zrotation
						JOINT Neck_virtual
						{
							OFFSET 0.000000 0.000000 0.000000
							CHANNELS 3 Xrotation Yrotation Zrotation
							JOINT Neck
							{
								OFFSET -0.418800 17.814194 8.416900
								CHANNELS 3 Xrotation Yrotation Zrotation
								JOINT Head
								{
									OFFSET 0.000000 7.031097 3.806800
									CHANNELS 3 Xrotation Yrotation Zrotation
									JOINT HeadTop_End
									{
										OFFSET 0.000000 24.646606 12.978600
										CHANNELS 3 Xrotation Yrotation Zrotation
										End Site
										{
											OFFSET 0 0 0
										}
									}
								}
							}
						}
						JOINT LeftShoulder_virtual
						{
							OFFSET 0.000000 0.000000 0.000000
							CHANNELS 3 Xrotation Yrotation Zrotation
							JOINT LeftShoulder
							{
								OFFSET 8.476499 7.247704 -3.868750
								CHANNELS 3 Xrotation Yrotation Zrotation
								JOINT LeftShoulder_split
								{
									OFFSET 8.476499 7.247704 -3.868750
									CHANNELS 3 Xrotation Yrotation Zrotation
									JOINT LeftArm
									{
										OFFSET 9.308998 -2.777710 0.208600
										CHANNELS 3 Xrotation Yrotation Zrotation
										JOINT LeftForeArm
										{
											OFFSET 29.972298 0.000000 0.000000
											CHANNELS 3 Xrotation Yrotation Zrotation
											JOINT LeftHand
											{
												OFFSET 26.026505 0.000000 0.000000
												CHANNELS 3 Xrotation Yrotation Zrotation
												End Site
												{
													OFFSET 0 0 0
												}
											}
										}
									}
								}
							}
						}
						JOINT RightShoulder_virtual
						{
							OFFSET 0.000000 0.000000 0.000000
							CHANNELS 3 Xrotation Yrotation Zrotation
							JOINT RightShoulder
							{
								OFFSET -7.570500 7.247704 -3.868750
								CHANNELS 3 Xrotation Yrotation Zrotation
								JOINT RightShoulder_split
								{
									OFFSET -7.570500 7.247704 -3.868750
									CHANNELS 3 Xrotation Yrotation Zrotation
									JOINT RightArm
									{
										OFFSET -9.308998 -2.777710 0.208500
										CHANNELS 3 Xrotation Yrotation Zrotation
										JOINT RightForeArm
										{
											OFFSET -29.972300 0.000000 0.000000
											CHANNELS 3 Xrotation Yrotation Zrotation
											JOINT RightHand
											{
												OFFSET -26.026505 0.000000 0.000000
												CHANNELS 3 Xrotation Yrotation Zrotation
												End Site
												{
													OFFSET 0 0 0
												}
											}
										}
									}
								}
							}
						}
					}
				}
			}
		}
	}
}
MOTION
Frames: 10
Frame Time: 0.03333333
74.258293 69.855453 193.677719 0.000000 0.000000 0.000000 171.937882 21.898920 -154.810786 -69.556563 -14.482883 35.845533 86.976865 -10.173095 -36.661867 -8.827418 9.641660 2.075483 -62.123678 -16.397507 3.998941 0.000000 0.000000 0.000000 172.002209 40.568055 -160.979800 -70.730878 -0.847896 -51.416107 73.936210 8.970975 -11.467353 -25.107603 -25.142749 46.190394 -23.090322 9.573523 -30.340820 0.000000 0.000000 0.000000 155.953600 46.261547 -141.721671 21.898261 15.476864 20.329713 1.418154 8.968609 7.090717 0.037309 6.273246 -0.818635 0.000000 0.000000 0.000000 8.807881 11.901638 3.512983 -0.521260 26.199842 25.641758 -149.899238 -54.251974 -146.849928 0.000000 0.000000 0.000000 26.030934 9.590660 6.156857 14.946187 -10.309066 27.174848 -31.422436 -5.506688 -4.221401 -10.506083 -62.310655 -9.468580 24.058479 11.853451 6.633142 0.000000 0.000000 0.000000 26.444587 10.664231 -4.251457 -7.533231 -2.340140 -10.810277 -23.799625 -26.906231 17.342456 -65.322946 15.459636 19.140680 27.949310 42.205884 4.664679 0.000000 0.000000 0.000000 
81.778969 63.530869 203.390335 0.000000 0.000000 0.000000 -156.655402 -0.591442 -168.167877 -79.160854 -12.819972 32.321230 79.606230 -10.650472 -31.825598 -3.587668 8.910358 -1.309310 -55.303161 -17.763594 6.672851 0.000000 0.000000 0.000000 -161.101076 10.982759 -177.871281 -78.836714 3.752365 -41.786561 72.018471 6.867637 -10.731822 -23.618605 -20.265301 47.837696 -22.895438 8.050263 -33.501327 0.000000 0.000000 0.000000 -160.142473 29.983796 -176.260640 20.609452 15.557028 16.969976 0.107906 10.215906 8.080941 0.338443 7.222532 -0.938263 0.000000 0.000000 0.000000 7.955076 13.605770 3.498031 -3.873422 22.047581 26.246175 -158.267026 -47.995070 -163.356364 0.000000 0.000000 0.000000 27.224383 11.596204 8.117323 15.022789 -11.999896 26.925272 -32.015296 -2.304867 -6.398816 -8.261793 -57.081742 -4.647680 18.462375 1.015734 6.716101 0.000000 0.000000 0.000000 28.543808 11.771891 -5.061461 -6.569045 3.925168 -9.295399 -25.581756 -22.208427 25.688174 -57.143067 11.719073 12.877173 37.930974 59.095493 -4.608117 0.000000 0.000000 0.000000 
89.601303 57.442986 214.609573 0.000000 0.000000 0.000000 -141.589903 -10.090387 -173.854515 -90.173660 -12.380675 29.514952 75.500310 -15.112890 -24.801050 8.132571 5.115606 -5.610672 -49.224012 -17.065175 6.877750 0.000000 0.000000 0.000000 -148.320659 -4.620640 178.150868 -88.848938 8.010190 -32.196077 67.432887 4.793452 -9.067169 -17.838475 -11.664859 50.278027 -20.551138 5.491989 -35.332733 0.000000 0.000000 0.000000 -141.726972 11.851225 172.902714 20.383684 14.250131 14.644207 -1.133167 10.148534 8.285786 0.353281 6.692763 -1.016922 0.000000 0.000000 0.000000 6.400761 14.138834 3.753412 -6.662178 19.682443 27.498261 -157.868703 -46.403537 -174.678372 0.000000 0.000000 0.000000 28.610582 12.030653 9.078932 14.650368 -12.183487 24.354320 -34.612363 2.212980 -7.988926 -8.727122 -48.193525 -2.025147 15.780908 -15.050851 8.218767 0.000000 0.000000 0.000000 28.930144 11.612391 -5.945875 -4.315892 12.896422 -8.015653 -26.649033 -19.661652 34.644106 -50.228299 6.503262 6.770784 52.285590 74.057651 -17.903394 0.000000 0.000000 0.000000 
97.585587 51.017952 226.169800 0.000000 0.000000 0.000000 -134.199174 -11.496552 -179.598731 -99.839464 -12.468205 27.386704 76.372068 -22.693249 -16.352342 21.133746 -1.153222 -7.556862 -42.484825 -15.179930 5.122857 0.000000 0.000000 0.000000 -139.267120 -11.950861 175.636347 -98.811233 11.109198 -23.642461 62.320121 2.335383 -6.222724 -11.391212 -1.431687 50.176243 -14.138766 1.803165 -36.387348 0.000000 0.000000 0.000000 -132.739727 -0.708203 170.144725 21.704608 11.579056 13.646052 -2.360984 8.838938 7.703393 0.188533 4.959900 -0.876191 0.000000 0.000000 0.000000 3.829707 13.461533 3.967474 -8.575702 19.346104 29.000655 -151.880786 -50.136232 176.934083 0.000000 0.000000 0.000000 30.085539 10.905362 8.852052 14.031737 -10.894390 19.268920 -39.336552 7.200496 -7.963054 -8.512735 -38.795970 -0.364081 18.956543 -33.651478 12.995486 0.000000 0.000000 0.000000 27.582718 10.277469 -6.823935 -1.297650 22.720959 -7.192141 -22.066388 -21.526415 41.639391 -46.134660 1.459993 1.938976 108.016669 84.948210 -72.579714 0.000000 0.000000 0.000000 
104.782822 43.968922 237.542892 0.000000 0.000000 0.000000 -130.023606 -10.078533 174.667881 -105.750193 -12.209568 25.374665 81.417453 -29.170413 -7.389154 28.405285 -6.200003 -6.557807 -35.312782 -12.258855 0.914672 0.000000 0.000000 0.000000 -132.447258 -13.437212 172.621160 -108.163101 13.472172 -15.649451 60.947349 -0.177743 -1.626700 -6.292416 7.692060 46.264997 -7.506334 -1.245229 -37.571815 0.000000 0.000000 0.000000 -128.056649 -7.083730 169.801809 24.491675 8.203295 14.019032 -3.604552 6.702147 6.466408 -0.251558 3.244002 -0.610987 0.000000 0.000000 0.000000 0.418583 11.714440 3.763281 -9.707762 20.417659 30.501511 -140.162244 -58.492237 173.756024 0.000000 0.000000 0.000000 30.813476 8.540786 7.762819 13.397224 -9.048266 12.157877 -44.688388 10.987331 -7.021582 -5.823810 -32.787101 0.490142 29.702731 -47.695102 22.685454 0.000000 0.000000 0.000000 25.320054 8.204262 -7.651143 1.845758 31.728913 -6.955410 -11.142900 -24.304690 43.710175 -44.242117 -1.795044 -0.697963 -169.394429 79.914859 -154.469769 0.000000 0.000000 0.000000 
111.602768 37.491749 248.468369 0.000000 0.000000 0.000000 -127.223270 -7.271231 169.460190 -105.743192 -11.080029 24.258602 88.872885 -32.125713 1.821587 27.603692 -8.493666 -5.855533 -32.709271 -8.946938 -4.598520 0.000000 0.000000 0.000000 -126.766590 -11.755498 169.098723 -116.813502 15.690229 -7.807877 67.548071 -1.666520 4.608802 -2.229397 14.622235 39.739717 -4.154072 -2.613640 -39.607645 0.000000 0.000000 0.000000 -124.812869 -10.251044 170.388126 27.791965 4.804552 15.048551 -4.972289 4.364318 4.943153 -0.471222 2.204590 -0.284999 0.000000 0.000000 0.000000 -3.480609 9.313213 2.857827 -10.358295 21.669458 31.777715 -117.644654 -68.149886 -176.543410 0.000000 0.000000 0.000000 30.329752 5.680197 6.279208 12.811012 -7.405685 3.936688 -49.189346 12.826042 -5.668761 2.262472 -31.184431 2.252821 43.349974 -54.027783 33.337696 0.000000 0.000000 0.000000 23.003199 5.953767 -8.323452 4.884360 38.777094 -7.093665 -0.858989 -23.500779 38.408029 -43.731584 -2.413418 -0.787903 -159.803764 73.909504 -163.636511 0.000000 0.000000 0.000000 
118.234932 32.613041 258.662354 0.000000 0.000000 0.000000 -124.856391 -5.171629 165.943312 -99.784488 -9.062393 25.324738 95.229646 -32.272757 9.419510 21.860604 -8.411694 -8.134562 -37.030868 -5.482406 -8.817560 0.000000 0.000000 0.000000 -122.524633 -10.658905 165.637797 -124.925977 18.706068 0.130524 82.236878 0.836695 11.120652 1.570059 19.498348 31.859052 -6.295363 -1.676175 -41.998765 0.000000 0.000000 0.000000 -122.347785 -11.887577 171.608599 30.638391 2.023544 15.656464 -6.462306 2.255337 3.441560 -0.269792 2.317541 -0.024841 0.000000 0.000000 0.000000 -6.980061 6.934326 1.256733 -10.669878 22.094234 32.599120 -78.244475 -72.868440 -146.190200 0.000000 0.000000 0.000000 28.440308 3.014772 5.025644 11.955937 -6.827854 -3.777036 -50.050902 12.436389 -3.675728 15.275295 -32.037296 6.519312 50.893321 -55.644434 37.119592 0.000000 0.000000 0.000000 20.831071 3.892682 -8.525134 7.931770 42.441877 -7.666580 3.308548 -20.999304 25.949303 -42.969762 -0.726971 1.845131 -163.063608 73.050130 -159.913334 0.000000 0.000000 0.000000 
124.338852 30.247406 267.050507 0.000000 0.000000 0.000000 -122.813932 -5.760160 165.457480 -90.591306 -6.479713 29.236601 97.845513 -30.978733 12.944970 16.873540 -6.371111 -12.405896 -45.357125 -2.183792 -10.342664 0.000000 0.000000 0.000000 -119.856829 -11.140271 163.893217 -132.091105 21.989444 8.498407 98.887622 6.600438 14.585480 5.416367 22.212743 23.623323 -13.312488 1.227949 -43.475629 0.000000 0.000000 0.000000 -119.889928 -11.134637 172.437920 31.555054 0.036035 15.158585 -8.081937 0.519802 2.119651 0.008990 2.997162 -0.177182 0.000000 0.000000 0.000000 -9.063877 4.889106 -0.795497 -10.873830 21.126088 33.043253 -45.421209 -69.309877 -117.426648 0.000000 0.000000 0.000000 25.157796 0.965910 4.443365 10.316845 -7.367641 -9.329182 -45.514301 10.982797 -2.470035 29.876228 -31.214490 12.693501 52.442742 -58.460463 35.325465 0.000000 0.000000 0.000000 18.876990 2.081571 -8.295808 11.247739 42.564796 -8.980635 0.593582 -16.766943 12.337372 -42.416923 1.836206 5.911186 -177.534867 76.475545 -144.968607 0.000000 0.000000 0.000000 
129.566574 30.190277 273.493103 0.000000 0.000000 0.000000 -121.376942 -8.247091 167.303052 -81.845474 -4.566468 34.318408 96.121860 -29.597587 12.533850 17.089417 -2.930115 -17.061743 -49.059032 -0.060426 -9.839701 0.000000 0.000000 0.000000 -117.521410 -14.573943 165.394506 -137.677612 25.404011 17.245178 111.688469 11.219603 14.160010 9.786416 22.161435 14.850696 -22.044499 4.391030 -42.965684 0.000000 0.000000 0.000000 -116.545936 -9.700072 173.307567 30.032325 -1.022490 13.097526 -9.825890 -0.967830 1.060493 0.316318 3.718795 -0.456745 0.000000 0.000000 0.000000 -9.297423 3.242041 -2.862309 -11.205557 18.714256 33.061353 -35.161687 -63.906603 -105.613706 0.000000 0.000000 0.000000 21.412300 -0.515570 4.704773 8.207160 -8.918992 -11.393438 -38.653489 10.929112 -1.872804 42.386235 -26.486639 17.646692 53.558034 -66.371154 34.382933 0.000000 0.000000 0.000000 16.587176 0.354345 -7.869263 14.759207 39.535775 -10.809799 -5.418472 -12.351704 3.423841 -43.007307 2.711548 9.334801 150.472305 79.741038 -112.360956 0.000000 0.000000 0.000000 
132.904251 31.463585 278.575012 0.000000 0.000000 0.000000 -119.844193 -11.015397 170.152402 -75.881066 -4.114315 39.038339 86.793925 -28.954138 7.532441 22.640542 1.043233 -21.352332 -40.744179 0.921309 -9.208807 0.000000 0.000000 0.000000 -115.333673 -18.990397 168.828452 -141.468244 29.523995 26.282196 118.341278 13.684159 12.341412 14.278474 18.903865 5.991983 -29.897555 6.653356 -40.853721 0.000000 0.000000 0.000000 -112.519123 -7.935101 174.246199 26.746669 -0.822695 9.864278 -11.510100 -2.372243 0.006152 0.310398 4.232305 -0.709903 0.000000 0.000000 0.000000 -7.838257 1.921830 -4.602463 -11.655794 15.495725 32.662736 -36.440173 -60.348027 -100.378407 0.000000 0.000000 0.000000 17.813736 -1.738940 5.486550 5.923026 -11.407177 -9.592046 -31.122577 11.752270 -1.777803 51.066258 -18.958940 18.643585 66.165313 -78.756227 46.307737 0.000000 0.000000 0.000000 13.530648 -1.462954 -7.605622 18.197477 33.896299 -13.351819 -13.011399 -10.105939 -0.504837 -45.329216 -0.593929 9.763026 126.351123 79.266278 -87.983983 0.000000 0.000000 0.000000 
